<?xml version="1.0" encoding="utf-8" standalone="no"?>
<!DOCTYPE svg PUBLIC "-//W3C//DTD SVG 1.1//EN"
  "http://www.w3.org/Graphics/SVG/1.1/DTD/svg11.dtd">
<svg height="345.6pt" version="1.1" viewBox="0 0 460.8 345.6" width="460.8pt" xmlns="http://www.w3.org/2000/svg" xmlns:xlink="http://www.w3.org/1999/xlink">
 <metadata>
  <rdf:RDF xmlns:cc="http://creativecommons.org/ns#" xmlns:dc="http://purl.org/dc/elements/1.1/" xmlns:rdf="http://www.w3.org/1999/02/22-rdf-syntax-ns#">
   <cc:Work>
    <dc:type rdf:resource="http://purl.org/dc/dcmitype/StillImage"/>
    <dc:date>2021-04-08T17:18:00.697968</dc:date>
    <dc:format>image/svg+xml</dc:format>
    <dc:creator>
     <cc:Agent>
      <dc:title>Matplotlib v3.4.1, https://matplotlib.org/</dc:title>
     </cc:Agent>
    </dc:creator>
   </cc:Work>
  </rdf:RDF>
 </metadata>
 <defs>
  <style type="text/css">*{stroke-linecap:butt;stroke-linejoin:round;}</style>
 </defs>
 <g id="figure_1">
  <g id="patch_1">
   <path d="M 0 345.6 
L 460.8 345.6 
L 460.8 0 
L 0 0 
z
" style="fill:#ffffff;"/>
  </g>
  <g id="axes_1">
   <g id="line2d_1">
    <path clip-path="url(#pdb73c5b06c)" d="M 73.832727 174.528 
L 86.181949 145.892957 
L 92.68154 131.375141 
L 98.206192 119.562408 
L 103.080885 109.65651 
L 107.630598 100.929855 
L 111.530352 93.901297 
L 115.430106 87.331793 
L 119.004881 81.74501 
L 122.254676 77.050677 
L 125.504472 72.741813 
L 128.429287 69.207526 
L 131.354103 66.010613 
L 134.278919 63.161313 
L 136.878755 60.927831 
L 139.478591 58.981887 
L 142.078428 57.328407 
L 144.353284 56.124832 
L 146.628141 55.150723 
L 148.902998 54.407968 
L 151.177854 53.898006 
L 153.452711 53.621826 
L 155.727568 53.579962 
L 158.002424 53.772496 
L 160.277281 54.199054 
L 162.552138 54.858811 
L 164.826994 55.750487 
L 167.101851 56.872354 
L 169.376708 58.222239 
L 171.976544 60.040792 
L 174.57638 62.14913 
L 177.176216 64.541914 
L 180.101032 67.566232 
L 183.025848 70.93318 
L 185.950663 74.631974 
L 189.200459 79.116501 
L 192.450254 83.978327 
L 196.025029 89.739128 
L 199.924783 96.485306 
L 203.824537 103.675825 
L 208.049271 111.919443 
L 212.923964 121.94746 
L 218.123636 133.157192 
L 224.298247 147.002942 
L 232.747715 166.545659 
L 249.321671 205.007304 
L 255.821261 219.452241 
L 261.345913 231.180961 
L 266.220606 240.996688 
L 270.44534 249.028475 
L 274.345094 256.001789 
L 278.244848 262.511224 
L 281.819623 268.039001 
L 285.069419 272.67666 
L 288.319214 276.926197 
L 291.244029 280.405012 
L 294.168845 283.544671 
L 297.093661 286.335117 
L 299.693497 288.515095 
L 302.293333 290.406555 
L 304.89317 292.004709 
L 307.168026 293.159294 
L 309.442883 294.08397 
L 311.71774 294.776947 
L 313.992596 295.236881 
L 316.267453 295.46288 
L 318.54231 295.454507 
L 320.817166 295.211778 
L 323.092023 294.735164 
L 325.36688 294.025587 
L 327.641736 293.084424 
L 329.916593 291.913498 
L 332.19145 290.515078 
L 334.791286 288.641817 
L 337.391122 286.479717 
L 339.990958 284.034251 
L 342.915774 280.952126 
L 345.84059 277.529092 
L 348.765405 273.776114 
L 352.015201 269.233825 
L 355.264996 264.317026 
L 358.839771 258.499238 
L 362.739525 251.695363 
L 366.639279 244.45213 
L 370.864013 236.157378 
L 375.738706 226.078508 
L 381.263358 214.106529 
L 387.762948 199.453739 
L 396.862375 178.331252 
L 398.487273 174.528 
L 398.487273 174.528 
" style="fill:none;stroke:#000000;stroke-linecap:square;stroke-width:1.5;"/>
   </g>
  </g>
 </g>
 <defs>
  <clipPath id="pdb73c5b06c">
   <rect height="266.112" width="357.12" x="57.6" y="41.472"/>
  </clipPath>
 </defs>
</svg>
